# xmcd CD database file
#
# Track frame offsets:
#	150
#	22446
#	44832
#	79871
#	109501
#	157199
#	185842
#	219608
#	241894
#	289419
#
# Disc length: 4082 seconds
#
# Revision: 0
# Processed by: cddbd v1.5.1PL2 Copyright (c) Steve Scherf et al.
# Submitted via: CDex 1.51
#
DISCID=9e0ff00a
DTITLE=Kelly Rossum - Party's Over/Begun
DYEAR=2002
DGENRE=Jazz
TTITLE0=scatterlogic
TTITLE1=the witch
TTITLE2=little mary
TTITLE3=toxic fruit
TTITLE4=sand dunes
TTITLE5=through the fog
TTITLE6=lowlands
TTITLE7=magestic, mighty monarch of the air
TTITLE8=rush hour
TTITLE9=a.m. quiet
EXTD=YEAR: 2002
EXTT0=
EXTT1=
EXTT2=
EXTT3=
EXTT4=
EXTT5=
EXTT6=
EXTT7=
EXTT8=
EXTT9=
PLAYORDER=
